<svg width="24" height="24" viewBox="0 0 24 24" fill="none" xmlns="http://www.w3.org/2000/svg">
<path d="M9.18401 14H14.816C14.401 12.839 13.302 12 12 12C10.698 12 9.59901 12.839 9.18401 14Z" fill="#05ED9F"/>
<path d="M12 10C12.5523 10 13 9.55228 13 9C13 8.44772 12.5523 8 12 8C11.4477 8 11 8.44772 11 9C11 9.55228 11.4477 10 12 10Z" fill="#05ED9F"/>
<path d="M0 24H24V16H0V24ZM7 18H17V20H7V18Z" fill="#05ED9F"/>
<path d="M0 0V14H7.101C7.391 12.576 8.299 11.39 9.52 10.685C9.192 10.204 9 9.624 9 9C9 7.346 10.346 6 12 6C13.654 6 15 7.346 15 9C15 9.624 14.808 10.204 14.48 10.685C15.701 11.39 16.609 12.577 16.899 14H24V0H0Z" fill="#05ED9F"/>
</svg>
