<svg width="66" height="17" viewBox="0 0 66 17" fill="none" xmlns="http://www.w3.org/2000/svg">
<path d="M13.694 0.0374359C13.2336 -0.0378174 12.762 0.00502965 12.3223 0.162053C11.8827 0.319112 11.4892 0.585282 11.1783 0.936077C10.5847 1.60754 10.4001 2.48176 10.5426 3.35774C10.6717 4.14776 10.843 4.94956 10.8816 5.71065C10.9354 6.85695 10.7626 8.00254 10.3732 9.08069C10.0208 10.0563 9.51881 10.8128 8.44288 10.9802C8.36314 10.9929 8.07263 11.002 7.99012 11.0064C7.90768 11.011 7.6468 10.9938 7.56607 10.9812C6.49023 10.8137 5.98367 10.0572 5.63221 9.07524C5.24279 7.99708 5.06997 6.8515 5.12386 5.7052C5.16243 4.94686 5.33368 4.14415 5.46278 3.35233C5.60533 2.47631 5.42064 1.60213 4.82712 0.93063C4.51515 0.580118 4.12075 0.314536 3.6803 0.158412C3.23982 0.00232378 2.7675 -0.0392766 2.30691 0.0374359C0.927115 0.264613 0.00814945 1.50075 8.04441e-05 2.79758C-0.00377008 3.29724 0.130681 3.78805 0.388289 4.21475C0.817738 4.92965 1.52242 5.45093 2.13746 5.99208C2.5445 6.3541 3.24829 7.38119 3.59347 8.49426C3.80236 9.16845 3.97271 9.85171 4.14124 10.5413C4.37793 11.5023 4.70338 13.6254 4.91766 14.5892C5.34533 16.5185 6.65429 16.9557 7.96596 17H8.01257C9.32423 16.9557 10.6547 16.5176 11.0823 14.5883C11.2957 13.6245 11.6203 11.5006 11.8588 10.5404C12.0282 9.85448 12.1977 9.1676 12.4066 8.49334C12.7517 7.38027 13.4556 6.3495 13.8626 5.99115C14.4776 5.44819 15.1814 4.92875 15.6117 4.21385C15.8694 3.78715 16.0038 3.29634 15.9999 2.79667C15.9928 1.49715 15.0774 0.260065 13.694 0.0374359Z" fill="#05ED9F"/>
<path d="M20.3105 11.8535C20.3105 12.0605 20.2988 12.2617 20.2754 12.457H15.8984C15.957 12.8398 16.123 13.1465 16.3965 13.377C16.6699 13.6035 17.0039 13.7168 17.3984 13.7168C17.7227 13.7168 17.9863 13.6543 18.1895 13.5293C18.3965 13.4004 18.5234 13.2305 18.5703 13.0195H20.2285C20.1309 13.6523 19.8281 14.1602 19.3203 14.543C18.8125 14.9258 18.1875 15.1172 17.4453 15.1172C16.875 15.1172 16.3516 14.9824 15.875 14.7129C15.4023 14.4395 15.0293 14.0664 14.7559 13.5938C14.4824 13.1172 14.3457 12.5938 14.3457 12.0234C14.3457 11.168 14.6406 10.4492 15.2305 9.86719C15.8242 9.28125 16.5508 8.98828 17.4102 8.98828C17.9336 8.98828 18.418 9.11328 18.8633 9.36328C19.3086 9.61328 19.6602 9.95898 19.918 10.4004C20.1797 10.8418 20.3105 11.3262 20.3105 11.8535ZM15.9805 11.3789H18.5469C18.5234 11.0859 18.3945 10.8418 18.1602 10.6465C17.9258 10.4512 17.6504 10.3535 17.334 10.3535C17.002 10.3535 16.7188 10.4395 16.4844 10.6113C16.25 10.7832 16.082 11.0391 15.9805 11.3789ZM24.5469 8.98828C25.3008 8.98828 25.8926 9.22656 26.3223 9.70312C26.752 10.1758 26.9668 10.8301 26.9668 11.666V15H25.2734V11.8828C25.2734 11.5 25.166 11.1914 24.9512 10.957C24.7402 10.7227 24.4609 10.6055 24.1133 10.6055C23.7617 10.6055 23.4785 10.7227 23.2637 10.957C23.0527 11.1875 22.9473 11.4961 22.9473 11.8828V15H21.2539V9.10547H22.9473V9.87891C23.3379 9.28516 23.8711 8.98828 24.5469 8.98828ZM30.9688 8.98828C31.3945 8.98828 31.7949 9.06641 32.1699 9.22266C32.5488 9.37891 32.873 9.59375 33.1426 9.86719C33.416 10.1367 33.6309 10.4629 33.7871 10.8457C33.9473 11.2246 34.0273 11.6289 34.0273 12.0586C34.0273 12.6328 33.8926 13.1543 33.623 13.623C33.3574 14.0918 32.9902 14.459 32.5215 14.7246C32.0566 14.9863 31.5391 15.1172 30.9688 15.1172C30.0977 15.1172 29.3691 14.8262 28.7832 14.2441C28.1973 13.6621 27.9043 12.9336 27.9043 12.0586C27.9043 11.1836 28.1973 10.4531 28.7832 9.86719C29.3691 9.28125 30.0977 8.98828 30.9688 8.98828ZM30.9688 10.6055C30.5664 10.6055 30.2305 10.7441 29.9609 11.0215C29.6953 11.2949 29.5625 11.6406 29.5625 12.0586C29.5625 12.4648 29.6953 12.8066 29.9609 13.084C30.2305 13.3613 30.5664 13.5 30.9688 13.5C31.3633 13.5 31.6953 13.3613 31.9648 13.084C32.2344 12.8066 32.3691 12.4648 32.3691 12.0586C32.3691 11.6406 32.2344 11.2949 31.9648 11.0215C31.6992 10.7441 31.3672 10.6055 30.9688 10.6055ZM41.7969 8.98828C42.5078 8.98828 43.0859 9.20312 43.5312 9.63281C43.9805 10.0625 44.2051 10.6309 44.2051 11.3379V15H42.5V11.7363C42.5 11.3887 42.4082 11.1133 42.2246 10.9102C42.041 10.707 41.7969 10.6055 41.4922 10.6055C41.1914 10.6055 40.9375 10.7051 40.7305 10.9043C40.5273 11.0996 40.4258 11.377 40.4258 11.7363V15H38.7324V11.7363C38.7324 11.3887 38.6406 11.1133 38.457 10.9102C38.2734 10.707 38.0254 10.6055 37.7129 10.6055C37.416 10.6055 37.168 10.7031 36.9688 10.8984C36.7695 11.0938 36.6699 11.373 36.6699 11.7363V15H34.9766V9.10547H36.6699V9.81445C37.0488 9.26367 37.6094 8.98828 38.3516 8.98828C39.1289 8.98828 39.6855 9.27539 40.0215 9.84961C40.1973 9.5918 40.4453 9.38477 40.7656 9.22852C41.0859 9.06836 41.4297 8.98828 41.7969 8.98828ZM45.5117 6.55664C45.7148 6.35352 45.957 6.25195 46.2383 6.25195C46.5195 6.25195 46.7617 6.35352 46.9648 6.55664C47.168 6.75586 47.2695 6.99414 47.2695 7.27148C47.2695 7.55273 47.168 7.79492 46.9648 7.99805C46.7617 8.20117 46.5195 8.30273 46.2383 8.30273C45.957 8.30273 45.7148 8.20117 45.5117 7.99805C45.3086 7.79492 45.207 7.55273 45.207 7.27148C45.207 6.99414 45.3086 6.75586 45.5117 6.55664ZM45.3945 9.10547H47.0879V15H45.3945V9.10547ZM52.3086 9.10547H54.002V15H52.3086V14.2207C51.9375 14.8184 51.4062 15.1172 50.7148 15.1172C49.9609 15.1172 49.3672 14.8789 48.9336 14.4023C48.5039 13.9258 48.2891 13.2695 48.2891 12.4336V9.10547H49.9824V12.2168C49.9824 12.6074 50.0879 12.9199 50.2988 13.1543C50.5098 13.3848 50.793 13.5 51.1484 13.5C51.4961 13.5 51.7754 13.3848 51.9863 13.1543C52.2012 12.9199 52.3086 12.6074 52.3086 12.2168V9.10547ZM62.0117 8.98828C62.7227 8.98828 63.3008 9.20312 63.7461 9.63281C64.1953 10.0625 64.4199 10.6309 64.4199 11.3379V15H62.7148V11.7363C62.7148 11.3887 62.623 11.1133 62.4395 10.9102C62.2559 10.707 62.0117 10.6055 61.707 10.6055C61.4062 10.6055 61.1523 10.7051 60.9453 10.9043C60.7422 11.0996 60.6406 11.377 60.6406 11.7363V15H58.9473V11.7363C58.9473 11.3887 58.8555 11.1133 58.6719 10.9102C58.4883 10.707 58.2402 10.6055 57.9277 10.6055C57.6309 10.6055 57.3828 10.7031 57.1836 10.8984C56.9844 11.0938 56.8848 11.373 56.8848 11.7363V15H55.1914V9.10547H56.8848V9.81445C57.2637 9.26367 57.8242 8.98828 58.5664 8.98828C59.3438 8.98828 59.9004 9.27539 60.2363 9.84961C60.4121 9.5918 60.6602 9.38477 60.9805 9.22852C61.3008 9.06836 61.6445 8.98828 62.0117 8.98828Z" fill="#05ED9F"/>
</svg>
