<svg width="16" height="17" viewBox="0 0 16 17" fill="none" xmlns="http://www.w3.org/2000/svg">
<path d="M13.694 0.0374359C13.2336 -0.0378174 12.762 0.00502965 12.3223 0.162053C11.8827 0.319112 11.4892 0.585282 11.1783 0.936077C10.5847 1.60754 10.4001 2.48176 10.5426 3.35774C10.6717 4.14776 10.843 4.94956 10.8816 5.71065C10.9354 6.85695 10.7626 8.00254 10.3732 9.08069C10.0208 10.0563 9.51881 10.8128 8.44288 10.9802C8.36314 10.9929 8.07263 11.002 7.99012 11.0064C7.90768 11.011 7.6468 10.9938 7.56607 10.9812C6.49023 10.8137 5.98367 10.0572 5.63221 9.07524C5.24279 7.99708 5.06997 6.8515 5.12386 5.7052C5.16243 4.94686 5.33368 4.14415 5.46278 3.35233C5.60533 2.47631 5.42064 1.60213 4.82712 0.93063C4.51515 0.580118 4.12075 0.314536 3.6803 0.158412C3.23982 0.00232378 2.7675 -0.0392766 2.30691 0.0374359C0.927115 0.264613 0.00814945 1.50075 8.04441e-05 2.79758C-0.00377008 3.29724 0.130681 3.78805 0.388289 4.21475C0.817738 4.92965 1.52242 5.45093 2.13746 5.99208C2.5445 6.3541 3.24829 7.38119 3.59347 8.49426C3.80236 9.16845 3.97271 9.85171 4.14124 10.5413C4.37793 11.5023 4.70338 13.6254 4.91766 14.5892C5.34533 16.5185 6.65429 16.9557 7.96596 17H8.01257C9.32423 16.9557 10.6547 16.5176 11.0823 14.5883C11.2957 13.6245 11.6203 11.5006 11.8588 10.5404C12.0282 9.85448 12.1977 9.1676 12.4066 8.49334C12.7517 7.38027 13.4556 6.3495 13.8626 5.99115C14.4776 5.44819 15.1814 4.92875 15.6117 4.21385C15.8694 3.78715 16.0038 3.29634 15.9999 2.79667C15.9928 1.49715 15.0774 0.260065 13.694 0.0374359Z" fill="#05ED9F"/>
</svg>
