<svg width="61" height="47" viewBox="0 0 61 47" fill="none" xmlns="http://www.w3.org/2000/svg">
<path d="M19.8984 33.8438V35.1562H22.6758V36H18.9609V30.7148H22.6523V33.8438H19.8984ZM19.8984 32.9766H21.7969V31.582H19.8984V32.9766ZM28.3125 36H27.375V31.5586H25.4883V36H24.5977V30.7148H28.3125V36ZM30.2344 36V30.7148H33.9492V36H30.2344ZM33.0703 31.582L31.1719 31.5938V35.1562H33.0703V31.582ZM39.5859 36H38.625V31.5586H36.7617V36H35.8711V30.7148H42.3516V36H41.4141V31.5586H39.5859V36ZM44.2617 30.7266L45.1523 30.7148V36H44.2617V30.7266ZM44.2617 28.0781H45.1523V29.6367H44.2617V28.0781ZM50.7773 30.7148V36H47.0625V30.7148H47.9531V35.1562H49.8398V30.7148H50.7773ZM56.4141 36H55.4531V31.5586H53.5898V36H52.6992V30.7148H59.1797V36H58.2422V31.5586H56.4141V36Z" fill="#05ED9F"/>
<path d="M5.32 24.032L4.936 23.904L3.688 25.472L0.904 23.2L2.408 21.28C2.83467 20.7467 3.32533 20.352 3.88 20.096C4.456 19.8187 5.05333 19.68 5.672 19.68C6.12 19.68 6.55733 19.7547 6.984 19.904C7.41067 20.0533 7.784 20.2773 8.104 20.576C8.44533 20.8533 8.72267 21.216 8.936 21.664C9.14933 22.112 9.27733 22.624 9.32 23.2L9.992 34.08H10.568L17.032 19.872L20.648 21.632L13.928 36H6.152L5.32 24.032Z" fill="#05ED9F"/>
</svg>
