<svg width="62" height="47" viewBox="0 0 62 47" fill="none" xmlns="http://www.w3.org/2000/svg">
<path d="M20.707 36.0879C20.3594 36.0879 20.0508 36.0234 19.7812 35.8945C19.5156 35.7656 19.291 35.5645 19.1074 35.291C18.9238 35.0176 18.7852 34.668 18.6914 34.2422C18.5977 33.8125 18.5508 33.2969 18.5508 32.6953V31.1719C18.5508 30.6602 18.5879 30.2227 18.6621 29.8594C18.7402 29.4922 18.8398 29.1855 18.9609 28.9395C19.0859 28.6895 19.2285 28.4922 19.3887 28.3477C19.5527 28.2031 19.7207 28.0938 19.8926 28.0195C20.0645 27.9414 20.2344 27.8926 20.4023 27.873C20.5742 27.8496 20.7324 27.8379 20.877 27.8379C21.1426 27.8379 21.3984 27.8789 21.6445 27.9609C21.8906 28.0391 22.1074 28.1758 22.2949 28.3711C22.4824 28.5625 22.6309 28.8203 22.7402 29.1445C22.8535 29.4688 22.9102 29.873 22.9102 30.3574C22.9102 30.5215 22.9043 30.6875 22.8926 30.8555C22.8848 31.0234 22.873 31.1895 22.8574 31.3535C22.8418 31.5137 22.8203 31.6699 22.793 31.8223C22.7695 31.9746 22.7441 32.1152 22.7168 32.2441H20.0391V33.0645C20.0391 33.416 20.0527 33.7129 20.0801 33.9551C20.1074 34.1934 20.1523 34.3867 20.2148 34.5352C20.2812 34.6797 20.3691 34.7852 20.4785 34.8516C20.5918 34.9141 20.7324 34.9453 20.9004 34.9453C20.9902 34.9453 21.0781 34.9277 21.1641 34.8926C21.25 34.8535 21.3242 34.791 21.3867 34.7051C21.4531 34.6191 21.5059 34.5059 21.5449 34.3652C21.584 34.2207 21.6035 34.043 21.6035 33.832V33.5801H22.8398V33.8906C22.8398 34.6562 22.6562 35.2148 22.2891 35.5664C21.9258 35.9141 21.3984 36.0879 20.707 36.0879ZM21.5273 31.248C21.5312 31.2051 21.5352 31.1484 21.5391 31.0781C21.543 31.0039 21.5449 30.9277 21.5449 30.8496C21.5488 30.7715 21.5508 30.6953 21.5508 30.6211C21.5508 30.543 21.5508 30.4766 21.5508 30.4219C21.5508 29.8906 21.4883 29.5078 21.3633 29.2734C21.2383 29.0391 21.0527 28.9219 20.8066 28.9219C20.6777 28.9219 20.5645 28.9531 20.4668 29.0156C20.3691 29.0742 20.2891 29.1758 20.2266 29.3203C20.1641 29.4609 20.1172 29.6484 20.0859 29.8828C20.0547 30.1172 20.0391 30.4082 20.0391 30.7559V31.248H21.5273ZM24.1641 27.9316H25.3066L25.4414 28.793V28.7988C25.5586 28.6152 25.6836 28.4629 25.8164 28.3418C25.9531 28.2168 26.0938 28.1172 26.2383 28.043C26.3828 27.9688 26.5293 27.916 26.6777 27.8848C26.8301 27.8535 26.9805 27.8379 27.1289 27.8379C27.6016 27.8379 27.9648 28.0039 28.2188 28.3359C28.4766 28.6641 28.6055 29.1582 28.6055 29.8184V36H27.123V29.8711C27.123 29.5156 27.0684 29.2695 26.959 29.1328C26.8496 28.9922 26.6895 28.9219 26.4785 28.9219C26.3301 28.9219 26.1816 28.9707 26.0332 29.0684C25.8887 29.166 25.7598 29.3008 25.6465 29.4727V36H24.1641V27.9316ZM32.1738 36.0879C32.002 36.0879 31.8262 36.0742 31.6465 36.0469C31.4707 36.0195 31.2988 35.9629 31.1309 35.877C30.9668 35.791 30.8105 35.668 30.6621 35.5078C30.5176 35.3477 30.3906 35.1367 30.2812 34.875C30.1719 34.6133 30.0859 34.291 30.0234 33.9082C29.9609 33.5254 29.9297 33.0684 29.9297 32.5371V31.2715C29.9297 30.748 29.9609 30.3008 30.0234 29.9297C30.0898 29.5547 30.1777 29.2402 30.2871 28.9863C30.4004 28.7324 30.5312 28.5312 30.6797 28.3828C30.8281 28.2305 30.9844 28.1152 31.1484 28.0371C31.3164 27.9551 31.4883 27.9023 31.6641 27.8789C31.8398 27.8516 32.0117 27.8379 32.1797 27.8379C32.3398 27.8379 32.5059 27.8496 32.6777 27.873C32.8496 27.8965 33.0176 27.9473 33.1816 28.0254C33.3457 28.0996 33.5 28.2129 33.6445 28.3652C33.793 28.5137 33.9219 28.7148 34.0312 28.9688C34.1445 29.2227 34.2324 29.5391 34.2949 29.918C34.3613 30.293 34.3945 30.7441 34.3945 31.2715V32.5371C34.3945 33.0605 34.3613 33.5117 34.2949 33.8906C34.2285 34.2695 34.1387 34.5898 34.0254 34.8516C33.9121 35.1133 33.7812 35.3262 33.6328 35.4902C33.4844 35.6504 33.3281 35.7754 33.1641 35.8652C33 35.9551 32.832 36.0137 32.6602 36.041C32.4922 36.0723 32.3301 36.0879 32.1738 36.0879ZM32.1855 34.9453C32.3184 34.9453 32.4297 34.9121 32.5195 34.8457C32.6133 34.7754 32.6875 34.6621 32.7422 34.5059C32.8008 34.3496 32.8418 34.1445 32.8652 33.8906C32.8926 33.6328 32.9062 33.3145 32.9062 32.9355V30.9492C32.9062 30.5703 32.8926 30.252 32.8652 29.9941C32.8418 29.7363 32.8008 29.5293 32.7422 29.373C32.6875 29.2129 32.6133 29.0977 32.5195 29.0273C32.4297 28.957 32.3184 28.9219 32.1855 28.9219C32.0449 28.9219 31.9258 28.957 31.8281 29.0273C31.7344 29.0977 31.6562 29.2129 31.5938 29.373C31.5312 29.5293 31.4863 29.7363 31.459 29.9941C31.4316 30.252 31.418 30.5703 31.418 30.9492V32.9355C31.418 33.3145 31.4316 33.6328 31.459 33.8906C31.4863 34.1445 31.5312 34.3496 31.5938 34.5059C31.6562 34.6621 31.7344 34.7754 31.8281 34.8457C31.9258 34.9121 32.0449 34.9453 32.1855 34.9453ZM35.707 27.9316H36.8555L36.9844 28.793V28.7988C37.1016 28.6152 37.2266 28.4629 37.3594 28.3418C37.4922 28.2168 37.6289 28.1172 37.7695 28.043C37.9141 27.9688 38.0605 27.916 38.209 27.8848C38.3613 27.8535 38.5117 27.8379 38.6602 27.8379C38.9766 27.8379 39.2441 27.9141 39.4629 28.0664C39.6816 28.2188 39.8477 28.4473 39.9609 28.752C40.0781 28.5762 40.2012 28.4297 40.3301 28.3125C40.4629 28.1953 40.5996 28.1016 40.7402 28.0312C40.8809 27.9609 41.0234 27.9121 41.168 27.8848C41.3125 27.8535 41.459 27.8379 41.6074 27.8379C42.0762 27.8379 42.4375 28.0039 42.6914 28.3359C42.9492 28.6641 43.0781 29.1582 43.0781 29.8184V36H41.5957V29.8711C41.5957 29.6953 41.582 29.5469 41.5547 29.4258C41.5273 29.3047 41.4863 29.207 41.4316 29.1328C41.377 29.0586 41.3066 29.0059 41.2207 28.9746C41.1348 28.9395 41.0312 28.9219 40.9102 28.9219C40.7734 28.9219 40.6367 28.9727 40.5 29.0742C40.3633 29.1719 40.2383 29.3086 40.125 29.4844C40.1289 29.5195 40.1309 29.5547 40.1309 29.5898C40.1309 29.625 40.1309 29.6602 40.1309 29.6953V36H38.6484V29.8711C38.6484 29.6953 38.6348 29.5469 38.6074 29.4258C38.5801 29.3047 38.5391 29.207 38.4844 29.1328C38.4297 29.0586 38.3594 29.0059 38.2734 28.9746C38.1875 28.9395 38.084 28.9219 37.9629 28.9219C37.8301 28.9219 37.6953 28.9707 37.5586 29.0684C37.4219 29.166 37.2988 29.3008 37.1895 29.4727V36H35.707V27.9316ZM45.4043 26.7773C45.1309 26.7773 44.9141 26.6953 44.7539 26.5312C44.5977 26.3672 44.5195 26.127 44.5195 25.8105C44.5195 25.6348 44.5391 25.4883 44.5781 25.3711C44.6211 25.25 44.6797 25.1543 44.7539 25.084C44.832 25.0098 44.9258 24.957 45.0352 24.9258C45.1445 24.8906 45.2695 24.873 45.4102 24.873C45.7031 24.873 45.9258 24.9473 46.0781 25.0957C46.2305 25.2441 46.3066 25.4824 46.3066 25.8105C46.3066 26.1152 46.2285 26.3535 46.0723 26.5254C45.9199 26.6934 45.6973 26.7773 45.4043 26.7773ZM44.6367 27.9316H46.1191V36H44.6367V27.9316ZM47.6836 27.9316H49.166V33.9961C49.166 34.3516 49.2207 34.5996 49.3301 34.7402C49.4395 34.877 49.5996 34.9453 49.8105 34.9453C49.959 34.9453 50.1035 34.9043 50.2441 34.8223C50.3848 34.7402 50.5117 34.623 50.625 34.4707V27.9316H52.1074V36H50.9766L50.8301 35.1387H50.8242C50.707 35.3223 50.582 35.4766 50.4492 35.6016C50.3203 35.7227 50.1836 35.8203 50.0391 35.8945C49.8984 35.9648 49.7539 36.0156 49.6055 36.0469C49.457 36.0781 49.3086 36.0938 49.1602 36.0938C48.6875 36.0938 48.3223 35.9297 48.0645 35.6016C47.8105 35.2734 47.6836 34.7773 47.6836 34.1133V27.9316ZM53.6602 27.9316H54.8086L54.9375 28.793V28.7988C55.0547 28.6152 55.1797 28.4629 55.3125 28.3418C55.4453 28.2168 55.582 28.1172 55.7227 28.043C55.8672 27.9688 56.0137 27.916 56.1621 27.8848C56.3145 27.8535 56.4648 27.8379 56.6133 27.8379C56.9297 27.8379 57.1973 27.9141 57.416 28.0664C57.6348 28.2188 57.8008 28.4473 57.9141 28.752C58.0312 28.5762 58.1543 28.4297 58.2832 28.3125C58.416 28.1953 58.5527 28.1016 58.6934 28.0312C58.834 27.9609 58.9766 27.9121 59.1211 27.8848C59.2656 27.8535 59.4121 27.8379 59.5605 27.8379C60.0293 27.8379 60.3906 28.0039 60.6445 28.3359C60.9023 28.6641 61.0312 29.1582 61.0312 29.8184V36H59.5488V29.8711C59.5488 29.6953 59.5352 29.5469 59.5078 29.4258C59.4805 29.3047 59.4395 29.207 59.3848 29.1328C59.3301 29.0586 59.2598 29.0059 59.1738 28.9746C59.0879 28.9395 58.9844 28.9219 58.8633 28.9219C58.7266 28.9219 58.5898 28.9727 58.4531 29.0742C58.3164 29.1719 58.1914 29.3086 58.0781 29.4844C58.082 29.5195 58.084 29.5547 58.084 29.5898C58.084 29.625 58.084 29.6602 58.084 29.6953V36H56.6016V29.8711C56.6016 29.6953 56.5879 29.5469 56.5605 29.4258C56.5332 29.3047 56.4922 29.207 56.4375 29.1328C56.3828 29.0586 56.3125 29.0059 56.2266 28.9746C56.1406 28.9395 56.0371 28.9219 55.916 28.9219C55.7832 28.9219 55.6484 28.9707 55.5117 29.0684C55.375 29.166 55.252 29.3008 55.1426 29.4727V36H53.6602V27.9316Z" fill="#05ED9F"/>
<path d="M5.32 24.032L4.936 23.904L3.688 25.472L0.904 23.2L2.408 21.28C2.83467 20.7467 3.32533 20.352 3.88 20.096C4.456 19.8187 5.05333 19.68 5.672 19.68C6.12 19.68 6.55733 19.7547 6.984 19.904C7.41067 20.0533 7.784 20.2773 8.104 20.576C8.44533 20.8533 8.72267 21.216 8.936 21.664C9.14933 22.112 9.27733 22.624 9.32 23.2L9.992 34.08H10.568L17.032 19.872L20.648 21.632L13.928 36H6.152L5.32 24.032Z" fill="#05ED9F"/>
</svg>
